<?xml version="1.0" encoding="utf-8"?>
<!-- Generator: Adobe Illustrator 27.3.1, SVG Export Plug-In . SVG Version: 6.00 Build 0)  -->
<svg version="1.1" id="レイヤー_1" xmlns="http://www.w3.org/2000/svg" xmlns:xlink="http://www.w3.org/1999/xlink" x="0px"
	 y="0px" viewBox="0 0 274 46" style="enable-background:new 0 0 274 46;" xml:space="preserve">
<style type="text/css">
	.st0{fill:#35853D;}
</style>
<g>
	<path class="st0" d="M11.6,19.2L25.2,1.5H39l-17,20.3l18.6,22.6H26.1L11.6,25.9v18.6H0.4v-43h11.2V19.2z"/>
	<path class="st0" d="M56.7,1.5v23.4c0,1.3,0,2.5,0.1,3.8c0.1,1.3,0.4,2.5,0.9,3.6c0.5,1.1,1.2,1.9,2.3,2.6c1,0.7,2.5,1,4.3,1
		c1.9,0,3.3-0.3,4.3-1c1-0.7,1.8-1.5,2.3-2.6c0.5-1.1,0.8-2.3,0.9-3.6c0.1-1.3,0.1-2.6,0.1-3.8V1.5H83v24.9c0,6.7-1.5,11.6-4.6,14.6
		c-3.1,3.1-7.8,4.6-14.1,4.6c-6.3,0-11.1-1.5-14.1-4.6s-4.6-8-4.6-14.6V1.5H56.7z"/>
	<path class="st0" d="M127.7,44.5h-13.9L103.2,28v16.5H92v-43h17.4c2.4,0,4.5,0.4,6.3,1.1c1.8,0.7,3.3,1.7,4.4,2.9
		c1.2,1.2,2,2.6,2.6,4.2c0.6,1.6,0.9,3.3,0.9,5.1c0,3.3-0.8,5.9-2.4,8c-1.6,2-3.9,3.4-7,4.1L127.7,44.5z M103.2,20.7h2.1
		c2.2,0,3.9-0.5,5.1-1.4c1.2-0.9,1.8-2.2,1.8-3.9s-0.6-3-1.8-3.9c-1.2-0.9-2.9-1.4-5.1-1.4h-2.1V20.7z"/>
	<path class="st0" d="M158.7,37h-16l-2.6,7.5h-11.9l16.4-43h12.2l16.4,43h-11.9L158.7,37z M155.8,28.5l-5-14.3l-5,14.3H155.8z"/>
	<path class="st0" d="M201.7,12.5c-1.2-1-2.4-1.7-3.6-2.2c-1.2-0.5-2.4-0.7-3.5-0.7c-1.4,0-2.6,0.3-3.5,1s-1.4,1.6-1.4,2.7
		c0,0.8,0.2,1.4,0.7,1.9c0.5,0.5,1.1,0.9,1.8,1.3c0.7,0.4,1.6,0.7,2.5,0.9c0.9,0.3,1.9,0.6,2.8,0.9c3.6,1.2,6.3,2.8,8,4.9
		c1.7,2,2.5,4.7,2.5,8c0,2.2-0.4,4.2-1.1,6c-0.7,1.8-1.8,3.3-3.2,4.6c-1.4,1.3-3.2,2.3-5.2,3c-2.1,0.7-4.4,1.1-7,1.1
		c-5.4,0-10.5-1.6-15.1-4.8l4.8-9c1.7,1.5,3.3,2.6,5,3.3c1.6,0.7,3.2,1.1,4.8,1.1c1.8,0,3.2-0.4,4.1-1.3c0.9-0.8,1.3-1.8,1.3-2.8
		c0-0.6-0.1-1.2-0.3-1.7c-0.2-0.5-0.6-0.9-1.1-1.3c-0.5-0.4-1.2-0.8-2.1-1.1c-0.9-0.3-1.9-0.7-3.1-1.1c-1.4-0.5-2.9-1-4.2-1.5
		c-1.4-0.6-2.6-1.3-3.7-2.2c-1.1-0.9-2-2.1-2.6-3.4c-0.7-1.4-1-3.1-1-5.3c0-2.1,0.4-4.1,1.1-5.8c0.7-1.7,1.7-3.2,3-4.4
		c1.3-1.2,2.8-2.2,4.7-2.9c1.8-0.7,3.9-1,6.2-1c2.1,0,4.4,0.3,6.7,0.9c2.3,0.6,4.5,1.5,6.7,2.6L201.7,12.5z"/>
	<path class="st0" d="M226.1,18.1h16.1V1.5h11.2v43h-11.2V26.8h-16.1v17.7h-11.2v-43h11.2V18.1z"/>
	<path class="st0" d="M273.6,1.5v43h-11.2v-43H273.6z"/>
</g>
</svg>
