<svg width="24" height="25" viewBox="0 0 24 25" fill="none" xmlns="http://www.w3.org/2000/svg">
<path d="M8.41493 2.21429C8.41493 1.26754 7.64739 0.5 6.70065 0.5C5.75391 0.5 4.98636 1.26754 4.98636 2.21429C4.98636 2.70353 5.19127 3.14482 5.51993 3.45714L0.269531 24.5H1.98636L7.14368 3.87058C7.87574 3.67531 8.41493 3.00781 8.41493 2.21429Z" fill="#333333"/>
<path d="M19.9873 5.64341C17.8571 5.64341 16.1297 3.90904 16.1297 3.90904C16.1297 3.90904 14.3882 2.21484 12.2731 2.21484C10.1579 2.21484 8.41592 2.98239 8.41592 3.92913L5.08203 17.2645C5.47016 16.5001 7.00712 15.9291 8.84449 15.9291C10.9748 15.9291 12.7016 17.6434 12.7016 17.6434C12.7016 17.6434 14.4286 19.3577 16.5588 19.3577C18.6889 19.3577 20.4159 18.5902 20.4159 17.6434L23.7315 4.34216C23.3155 5.08935 21.7971 5.64341 19.9873 5.64341Z" fill="#333333"/>
</svg>
